<svg xmlns="http://www.w3.org/2000/svg" xmlns:xlink="http://www.w3.org/1999/xlink" contentStyleType="text/css" data-diagram-type="SEQUENCE" height="956px" preserveAspectRatio="none" style="width:783px;height:956px;background:#FFFFFF;" version="1.1" viewBox="0 0 783 956" width="783px" zoomAndPan="magnify"><defs/><g><g><title>Web Shop</title><rect fill="#FFFFFF" height="145.6641" style="stroke:#181818;stroke-width:1;" width="10" x="233.6499" y="112.4297"/></g><g><title>Web Shop</title><rect fill="#FFFFFF" height="203.9297" style="stroke:#181818;stroke-width:1;" width="10" x="233.6499" y="427.8906"/></g><g><title>Web Shop</title><rect fill="#FFFFFF" height="145.6641" style="stroke:#181818;stroke-width:1;" width="10" x="233.6499" y="704.8906"/></g><g><title>Payment Service</title><rect fill="#FFFFFF" height="29.1328" style="stroke:#181818;stroke-width:1;" width="10" x="492.9282" y="199.8281"/></g><g><title>Payment Service</title><rect fill="#FFFFFF" height="29.1328" style="stroke:#181818;stroke-width:1;" width="10" x="492.9282" y="287.2266"/></g><g><title>Payment Service</title><rect fill="#FFFFFF" height="53.2656" style="stroke:#181818;stroke-width:1;" width="10" x="492.9282" y="345.4922"/></g><g><title>Payment Service</title><rect fill="#FFFFFF" height="29.1328" style="stroke:#181818;stroke-width:1;" width="10" x="492.9282" y="457.0234"/></g><g><title>Payment Service</title><rect fill="#FFFFFF" height="29.1328" style="stroke:#181818;stroke-width:1;" width="10" x="492.9282" y="734.0234"/></g><g><title>Database</title><rect fill="#FFFFFF" height="29.1328" style="stroke:#181818;stroke-width:1;" width="10" x="605.3843" y="141.5625"/></g><g><title>Database</title><rect fill="#FFFFFF" height="29.1328" style="stroke:#181818;stroke-width:1;" width="10" x="605.3843" y="515.2891"/></g><g><title>Database</title><rect fill="#FFFFFF" height="29.1328" style="stroke:#181818;stroke-width:1;" width="10" x="605.3843" y="792.2891"/></g><g><title>Email System</title><rect fill="#FFFFFF" height="29.1328" style="stroke:#181818;stroke-width:1;" width="10" x="706.5337" y="573.5547"/></g><rect fill="none" height="498.0625" style="stroke:#000000;stroke-width:1.5;" width="766.2827" x="10" y="360.4922"/><g><title>Client</title><rect fill="#000000" fill-opacity="0.00000" height="794.2578" width="8" x="39.2651" y="81.2969"/><line style="stroke:#181818;stroke-width:0.5;stroke-dasharray:5,5;" x1="43" x2="43" y1="81.2969" y2="875.5547"/></g><g><title>Web Shop</title><rect fill="#000000" fill-opacity="0.00000" height="794.2578" width="8" x="234.6499" y="81.2969"/><line style="stroke:#181818;stroke-width:0.5;stroke-dasharray:5,5;" x1="238.1475" x2="238.1475" y1="81.2969" y2="875.5547"/></g><g><title>Payment Service</title><rect fill="#000000" fill-opacity="0.00000" height="794.2578" width="8" x="493.9282" y="81.2969"/><line style="stroke:#181818;stroke-width:0.5;stroke-dasharray:5,5;" x1="497.8726" x2="497.8726" y1="81.2969" y2="875.5547"/></g><g><title>Database</title><rect fill="#000000" fill-opacity="0.00000" height="794.2578" width="8" x="606.3843" y="81.2969"/><line style="stroke:#181818;stroke-width:0.5;stroke-dasharray:5,5;" x1="609.9839" x2="609.9839" y1="81.2969" y2="875.5547"/></g><g><title>Email System</title><rect fill="#000000" fill-opacity="0.00000" height="794.2578" width="8" x="707.5337" y="81.2969"/><line style="stroke:#181818;stroke-width:0.5;stroke-dasharray:5,5;" x1="710.7847" x2="710.7847" y1="81.2969" y2="875.5547"/></g><g class="participant participant-head" data-participant="Client"><text fill="#000000" font-family="sans-serif" font-size="14" lengthAdjust="spacing" textLength="40.5303" x="20" y="77.9951">Client</text><ellipse cx="43.2651" cy="13.5" fill="#E2E2F0" rx="8" ry="8" style="stroke:#181818;stroke-width:0.5;"/><path d="M43.2651,21.5 L43.2651,48.5 M30.2651,29.5 L56.2651,29.5 M43.2651,48.5 L30.2651,63.5 M43.2651,48.5 L56.2651,63.5" fill="none" style="stroke:#181818;stroke-width:0.5;"/></g><g class="participant participant-tail" data-participant="Client"><text fill="#000000" font-family="sans-serif" font-size="14" lengthAdjust="spacing" textLength="40.5303" x="20" y="887.5498">Client</text><ellipse cx="43.2651" cy="899.3516" fill="#E2E2F0" rx="8" ry="8" style="stroke:#181818;stroke-width:0.5;"/><path d="M43.2651,907.3516 L43.2651,934.3516 M30.2651,915.3516 L56.2651,915.3516 M43.2651,934.3516 L30.2651,949.3516 M43.2651,934.3516 L56.2651,949.3516" fill="none" style="stroke:#181818;stroke-width:0.5;"/></g><g class="participant participant-head" data-participant="Shop"><rect fill="#E2E2F0" height="30.2969" rx="2.5" ry="2.5" style="stroke:#181818;stroke-width:0.5;" width="85.0049" x="196.1475" y="50"/><text fill="#000000" font-family="sans-serif" font-size="14" lengthAdjust="spacing" textLength="71.0049" x="203.1475" y="69.9951">Web Shop</text></g><g class="participant participant-tail" data-participant="Shop"><rect fill="#E2E2F0" height="30.2969" rx="2.5" ry="2.5" style="stroke:#181818;stroke-width:0.5;" width="85.0049" x="196.1475" y="874.5547"/><text fill="#000000" font-family="sans-serif" font-size="14" lengthAdjust="spacing" textLength="71.0049" x="203.1475" y="894.5498">Web Shop</text></g><g class="participant participant-head" data-participant="Pay"><rect fill="#E2E2F0" height="30.2969" rx="2.5" ry="2.5" style="stroke:#181818;stroke-width:0.5;" width="132.1113" x="431.8726" y="50"/><text fill="#000000" font-family="sans-serif" font-size="14" lengthAdjust="spacing" textLength="118.1113" x="438.8726" y="69.9951">Payment Service</text></g><g class="participant participant-tail" data-participant="Pay"><rect fill="#E2E2F0" height="30.2969" rx="2.5" ry="2.5" style="stroke:#181818;stroke-width:0.5;" width="132.1113" x="431.8726" y="874.5547"/><text fill="#000000" font-family="sans-serif" font-size="14" lengthAdjust="spacing" textLength="118.1113" x="438.8726" y="894.5498">Payment Service</text></g><g class="participant participant-head" data-participant="DB"><text fill="#000000" font-family="sans-serif" font-size="14" lengthAdjust="spacing" textLength="66.8008" x="573.9839" y="77.9951">Database</text><path d="M592.3843,29 C592.3843,19 610.3843,19 610.3843,19 C610.3843,19 628.3843,19 628.3843,29 L628.3843,55 C628.3843,65 610.3843,65 610.3843,65 C610.3843,65 592.3843,65 592.3843,55 L592.3843,29" fill="#E2E2F0" style="stroke:#181818;stroke-width:0.5;"/><path d="M592.3843,29 C592.3843,39 610.3843,39 610.3843,39 C610.3843,39 628.3843,39 628.3843,29" fill="none" style="stroke:#181818;stroke-width:0.5;"/></g><g class="participant participant-tail" data-participant="DB"><text fill="#000000" font-family="sans-serif" font-size="14" lengthAdjust="spacing" textLength="66.8008" x="573.9839" y="887.5498">Database</text><path d="M592.3843,900.8516 C592.3843,890.8516 610.3843,890.8516 610.3843,890.8516 C610.3843,890.8516 628.3843,890.8516 628.3843,900.8516 L628.3843,926.8516 C628.3843,936.8516 610.3843,936.8516 610.3843,936.8516 C610.3843,936.8516 592.3843,936.8516 592.3843,926.8516 L592.3843,900.8516" fill="#E2E2F0" style="stroke:#181818;stroke-width:0.5;"/><path d="M592.3843,900.8516 C592.3843,910.8516 610.3843,910.8516 610.3843,910.8516 C610.3843,910.8516 628.3843,910.8516 628.3843,900.8516" fill="none" style="stroke:#181818;stroke-width:0.5;"/></g><g class="participant participant-head" data-participant="Mail"><rect fill="#E2E2F0" height="30.2969" rx="2.5" ry="2.5" style="stroke:#181818;stroke-width:0.5;" width="109.498" x="656.7847" y="50"/><text fill="#000000" font-family="sans-serif" font-size="14" lengthAdjust="spacing" textLength="95.498" x="663.7847" y="69.9951">Email System</text></g><g class="participant participant-tail" data-participant="Mail"><rect fill="#E2E2F0" height="30.2969" rx="2.5" ry="2.5" style="stroke:#181818;stroke-width:0.5;" width="109.498" x="656.7847" y="874.5547"/><text fill="#000000" font-family="sans-serif" font-size="14" lengthAdjust="spacing" textLength="95.498" x="663.7847" y="894.5498">Email System</text></g><g><title>Web Shop</title><rect fill="#FFFFFF" height="145.6641" style="stroke:#181818;stroke-width:1;" width="10" x="233.6499" y="112.4297"/></g><g><title>Web Shop</title><rect fill="#FFFFFF" height="203.9297" style="stroke:#181818;stroke-width:1;" width="10" x="233.6499" y="427.8906"/></g><g><title>Web Shop</title><rect fill="#FFFFFF" height="145.6641" style="stroke:#181818;stroke-width:1;" width="10" x="233.6499" y="704.8906"/></g><g><title>Payment Service</title><rect fill="#FFFFFF" height="29.1328" style="stroke:#181818;stroke-width:1;" width="10" x="492.9282" y="199.8281"/></g><g><title>Payment Service</title><rect fill="#FFFFFF" height="29.1328" style="stroke:#181818;stroke-width:1;" width="10" x="492.9282" y="287.2266"/></g><g><title>Payment Service</title><rect fill="#FFFFFF" height="53.2656" style="stroke:#181818;stroke-width:1;" width="10" x="492.9282" y="345.4922"/></g><g><title>Payment Service</title><rect fill="#FFFFFF" height="29.1328" style="stroke:#181818;stroke-width:1;" width="10" x="492.9282" y="457.0234"/></g><g><title>Payment Service</title><rect fill="#FFFFFF" height="29.1328" style="stroke:#181818;stroke-width:1;" width="10" x="492.9282" y="734.0234"/></g><g><title>Database</title><rect fill="#FFFFFF" height="29.1328" style="stroke:#181818;stroke-width:1;" width="10" x="605.3843" y="141.5625"/></g><g><title>Database</title><rect fill="#FFFFFF" height="29.1328" style="stroke:#181818;stroke-width:1;" width="10" x="605.3843" y="515.2891"/></g><g><title>Database</title><rect fill="#FFFFFF" height="29.1328" style="stroke:#181818;stroke-width:1;" width="10" x="605.3843" y="792.2891"/></g><g><title>Email System</title><rect fill="#FFFFFF" height="29.1328" style="stroke:#181818;stroke-width:1;" width="10" x="706.5337" y="573.5547"/></g><g class="message" data-participant-1="Client" data-participant-2="Shop"><polygon fill="#181818" points="221.6499,108.4297,231.6499,112.4297,221.6499,116.4297,225.6499,112.4297" style="stroke:#181818;stroke-width:1;"/><line style="stroke:#181818;stroke-width:1;" x1="43.2651" x2="227.6499" y1="112.4297" y2="112.4297"/><text fill="#000000" font-family="sans-serif" font-size="13" lengthAdjust="spacing" textLength="116.6572" x="50.2651" y="107.3638">initiateCheckout()</text></g><g class="message" data-participant-1="Shop" data-participant-2="DB"><polygon fill="#181818" points="593.3843,137.5625,603.3843,141.5625,593.3843,145.5625,597.3843,141.5625" style="stroke:#181818;stroke-width:1;"/><line style="stroke:#181818;stroke-width:1;" x1="243.6499" x2="599.3843" y1="141.5625" y2="141.5625"/><text fill="#000000" font-family="sans-serif" font-size="13" lengthAdjust="spacing" textLength="141.2988" x="250.6499" y="136.4966">createPendingOrder()</text></g><g class="message" data-participant-1="DB" data-participant-2="Shop"><polygon fill="#181818" points="254.6499,166.6953,244.6499,170.6953,254.6499,174.6953,250.6499,170.6953" style="stroke:#181818;stroke-width:1;"/><line style="stroke:#181818;stroke-width:1;stroke-dasharray:2,2;" x1="248.6499" x2="609.3843" y1="170.6953" y2="170.6953"/><text fill="#000000" font-family="sans-serif" font-size="13" lengthAdjust="spacing" textLength="91.3745" x="260.6499" y="165.6294">return orderId</text></g><g class="message" data-participant-1="Shop" data-participant-2="Pay"><polygon fill="#181818" points="480.9282,195.8281,490.9282,199.8281,480.9282,203.8281,484.9282,199.8281" style="stroke:#181818;stroke-width:1;"/><line style="stroke:#181818;stroke-width:1;" x1="243.6499" x2="486.9282" y1="199.8281" y2="199.8281"/><text fill="#000000" font-family="sans-serif" font-size="13" lengthAdjust="spacing" textLength="166.9434" x="250.6499" y="194.7622">requestPaymentSession()</text></g><g class="message" data-participant-1="Pay" data-participant-2="Shop"><polygon fill="#181818" points="254.6499,224.9609,244.6499,228.9609,254.6499,232.9609,250.6499,228.9609" style="stroke:#181818;stroke-width:1;"/><line style="stroke:#181818;stroke-width:1;stroke-dasharray:2,2;" x1="248.6499" x2="496.9282" y1="228.9609" y2="228.9609"/><text fill="#000000" font-family="sans-serif" font-size="13" lengthAdjust="spacing" textLength="132.1772" x="260.6499" y="223.895">return sessionToken</text></g><g class="message" data-participant-1="Shop" data-participant-2="Client"><polygon fill="#181818" points="54.2651,254.0938,44.2651,258.0938,54.2651,262.0938,50.2651,258.0938" style="stroke:#181818;stroke-width:1;"/><line style="stroke:#181818;stroke-width:1;stroke-dasharray:2,2;" x1="48.2651" x2="237.6499" y1="258.0938" y2="258.0938"/><text fill="#000000" font-family="sans-serif" font-size="13" lengthAdjust="spacing" textLength="166.3848" x="60.2651" y="253.0278">redirectToPaymentPage()</text></g><g class="message" data-participant-1="Client" data-participant-2="Pay"><polygon fill="#181818" points="480.9282,283.2266,490.9282,287.2266,480.9282,291.2266,484.9282,287.2266" style="stroke:#181818;stroke-width:1;"/><line style="stroke:#181818;stroke-width:1;" x1="43.2651" x2="486.9282" y1="287.2266" y2="287.2266"/><text fill="#000000" font-family="sans-serif" font-size="13" lengthAdjust="spacing" textLength="130.4888" x="50.2651" y="282.1606">submitCardDetails()</text></g><g class="message" data-participant-1="Pay" data-participant-2="Client"><polygon fill="#181818" points="54.2651,312.3594,44.2651,316.3594,54.2651,320.3594,50.2651,316.3594" style="stroke:#181818;stroke-width:1;"/><line style="stroke:#181818;stroke-width:1;stroke-dasharray:2,2;" x1="48.2651" x2="496.9282" y1="316.3594" y2="316.3594"/><text fill="#000000" font-family="sans-serif" font-size="13" lengthAdjust="spacing" textLength="149.1191" x="60.2651" y="311.2935">request3DSecureOTP()</text></g><g class="message" data-participant-1="Client" data-participant-2="Pay"><polygon fill="#181818" points="480.9282,341.4922,490.9282,345.4922,480.9282,349.4922,484.9282,345.4922" style="stroke:#181818;stroke-width:1;"/><line style="stroke:#181818;stroke-width:1;" x1="43.2651" x2="486.9282" y1="345.4922" y2="345.4922"/><text fill="#000000" font-family="sans-serif" font-size="13" lengthAdjust="spacing" textLength="80.793" x="50.2651" y="340.4263">submitOTP()</text></g><path d="M10,360.4922 L74.4429,360.4922 L74.4429,367.625 L64.4429,377.625 L10,377.625 L10,360.4922" fill="#EEEEEE" style="stroke:#000000;stroke-width:1.5;"/><rect fill="none" height="498.0625" style="stroke:#000000;stroke-width:1.5;" width="766.2827" x="10" y="360.4922"/><text fill="#000000" font-family="sans-serif" font-size="13" font-weight="bold" lengthAdjust="spacing" textLength="19.4429" x="25" y="373.5591">alt</text><text fill="#000000" font-family="sans-serif" font-size="11" font-weight="bold" lengthAdjust="spacing" textLength="136.4741" x="89.4429" y="372.7026">[Payment Authorized]</text><g class="message" data-participant-1="Pay" data-participant-2="Client"><polygon fill="#181818" points="54.2651,394.7578,44.2651,398.7578,54.2651,402.7578,50.2651,398.7578" style="stroke:#181818;stroke-width:1;"/><line style="stroke:#181818;stroke-width:1;stroke-dasharray:2,2;" x1="48.2651" x2="496.9282" y1="398.7578" y2="398.7578"/><text fill="#000000" font-family="sans-serif" font-size="13" lengthAdjust="spacing" textLength="165.6104" x="60.2651" y="393.6919">displaySuccessMessage()</text></g><g class="message" data-participant-1="Client" data-participant-2="Shop"><polygon fill="#181818" points="221.6499,423.8906,231.6499,427.8906,221.6499,431.8906,225.6499,427.8906" style="stroke:#181818;stroke-width:1;"/><line style="stroke:#181818;stroke-width:1;" x1="43.2651" x2="227.6499" y1="427.8906" y2="427.8906"/><text fill="#000000" font-family="sans-serif" font-size="13" lengthAdjust="spacing" textLength="100.9468" x="50.2651" y="422.8247">returnToStore()</text></g><g class="message" data-participant-1="Shop" data-participant-2="Pay"><polygon fill="#181818" points="480.9282,453.0234,490.9282,457.0234,480.9282,461.0234,484.9282,457.0234" style="stroke:#181818;stroke-width:1;"/><line style="stroke:#181818;stroke-width:1;" x1="243.6499" x2="486.9282" y1="457.0234" y2="457.0234"/><text fill="#000000" font-family="sans-serif" font-size="13" lengthAdjust="spacing" textLength="164.7661" x="250.6499" y="451.9575">verifyTransactionStatus()</text></g><g class="message" data-participant-1="Pay" data-participant-2="Shop"><polygon fill="#181818" points="254.6499,482.1563,244.6499,486.1563,254.6499,490.1563,250.6499,486.1563" style="stroke:#181818;stroke-width:1;"/><line style="stroke:#181818;stroke-width:1;stroke-dasharray:2,2;" x1="248.6499" x2="496.9282" y1="486.1563" y2="486.1563"/><text fill="#000000" font-family="sans-serif" font-size="13" lengthAdjust="spacing" textLength="163.376" x="260.6499" y="481.0903">return status: CAPTURED</text></g><g class="message" data-participant-1="Shop" data-participant-2="DB"><polygon fill="#181818" points="593.3843,511.2891,603.3843,515.2891,593.3843,519.2891,597.3843,515.2891" style="stroke:#181818;stroke-width:1;"/><line style="stroke:#181818;stroke-width:1;" x1="243.6499" x2="599.3843" y1="515.2891" y2="515.2891"/><text fill="#000000" font-family="sans-serif" font-size="13" lengthAdjust="spacing" textLength="165.1216" x="250.6499" y="510.2231">updateOrderStatus(PAID)</text></g><g class="message" data-participant-1="DB" data-participant-2="Shop"><polygon fill="#181818" points="254.6499,540.4219,244.6499,544.4219,254.6499,548.4219,250.6499,544.4219" style="stroke:#181818;stroke-width:1;"/><line style="stroke:#181818;stroke-width:1;stroke-dasharray:2,2;" x1="248.6499" x2="609.3843" y1="544.4219" y2="544.4219"/><text fill="#000000" font-family="sans-serif" font-size="13" lengthAdjust="spacing" textLength="96.6177" x="260.6499" y="539.356">confirmUpdate</text></g><g class="message" data-participant-1="Shop" data-participant-2="Mail"><polygon fill="#181818" points="694.5337,569.5547,704.5337,573.5547,694.5337,577.5547,698.5337,573.5547" style="stroke:#181818;stroke-width:1;"/><line style="stroke:#181818;stroke-width:1;" x1="243.6499" x2="700.5337" y1="573.5547" y2="573.5547"/><text fill="#000000" font-family="sans-serif" font-size="13" lengthAdjust="spacing" textLength="126.6104" x="250.6499" y="568.4888">sendReceiptEmail()</text></g><g class="message" data-participant-1="Mail" data-participant-2="Client"><polygon fill="#181818" points="54.2651,598.6875,44.2651,602.6875,54.2651,606.6875,50.2651,602.6875" style="stroke:#181818;stroke-width:1;"/><line style="stroke:#181818;stroke-width:1;stroke-dasharray:2,2;" x1="48.2651" x2="710.5337" y1="602.6875" y2="602.6875"/><text fill="#000000" font-family="sans-serif" font-size="13" lengthAdjust="spacing" textLength="90.7207" x="60.2651" y="597.6216">deliverEmail()</text></g><g class="message" data-participant-1="Shop" data-participant-2="Client"><polygon fill="#181818" points="54.2651,627.8203,44.2651,631.8203,54.2651,635.8203,50.2651,631.8203" style="stroke:#181818;stroke-width:1;"/><line style="stroke:#181818;stroke-width:1;stroke-dasharray:2,2;" x1="48.2651" x2="237.6499" y1="631.8203" y2="631.8203"/><text fill="#000000" font-family="sans-serif" font-size="13" lengthAdjust="spacing" textLength="139.8452" x="60.2651" y="626.7544">showThankYouPage()</text></g><line style="stroke:#000000;stroke-width:1;stroke-dasharray:2,2;" x1="10" x2="776.2827" y1="640.8203" y2="640.8203"/><text fill="#000000" font-family="sans-serif" font-size="11" font-weight="bold" lengthAdjust="spacing" textLength="122.3696" x="15" y="651.0308">[Payment Declined]</text><g class="message" data-participant-1="Pay" data-participant-2="Client"><polygon fill="#181818" points="54.2651,671.7578,44.2651,675.7578,54.2651,679.7578,50.2651,675.7578" style="stroke:#181818;stroke-width:1;"/><line style="stroke:#181818;stroke-width:1;stroke-dasharray:2,2;" x1="48.2651" x2="496.9282" y1="675.7578" y2="675.7578"/><text fill="#000000" font-family="sans-serif" font-size="13" lengthAdjust="spacing" textLength="145.4819" x="60.2651" y="670.6919">displayErrorMessage()</text></g><g class="message" data-participant-1="Client" data-participant-2="Shop"><polygon fill="#181818" points="221.6499,700.8906,231.6499,704.8906,221.6499,708.8906,225.6499,704.8906" style="stroke:#181818;stroke-width:1;"/><line style="stroke:#181818;stroke-width:1;" x1="43.2651" x2="227.6499" y1="704.8906" y2="704.8906"/><text fill="#000000" font-family="sans-serif" font-size="13" lengthAdjust="spacing" textLength="100.9468" x="50.2651" y="699.8247">returnToStore()</text></g><g class="message" data-participant-1="Shop" data-participant-2="Pay"><polygon fill="#181818" points="480.9282,730.0234,490.9282,734.0234,480.9282,738.0234,484.9282,734.0234" style="stroke:#181818;stroke-width:1;"/><line style="stroke:#181818;stroke-width:1;" x1="243.6499" x2="486.9282" y1="734.0234" y2="734.0234"/><text fill="#000000" font-family="sans-serif" font-size="13" lengthAdjust="spacing" textLength="139.9722" x="250.6499" y="728.9575">getTransactionError()</text></g><g class="message" data-participant-1="Pay" data-participant-2="Shop"><polygon fill="#181818" points="254.6499,759.1563,244.6499,763.1563,254.6499,767.1563,250.6499,763.1563" style="stroke:#181818;stroke-width:1;"/><line style="stroke:#181818;stroke-width:1;stroke-dasharray:2,2;" x1="248.6499" x2="496.9282" y1="763.1563" y2="763.1563"/><text fill="#000000" font-family="sans-serif" font-size="13" lengthAdjust="spacing" textLength="225.2783" x="260.6499" y="758.0903">return error: INSUFFICIENT_FUNDS</text></g><g class="message" data-participant-1="Shop" data-participant-2="DB"><polygon fill="#181818" points="593.3843,788.2891,603.3843,792.2891,593.3843,796.2891,597.3843,792.2891" style="stroke:#181818;stroke-width:1;"/><line style="stroke:#181818;stroke-width:1;" x1="243.6499" x2="599.3843" y1="792.2891" y2="792.2891"/><text fill="#000000" font-family="sans-serif" font-size="13" lengthAdjust="spacing" textLength="180.2163" x="250.6499" y="787.2231">updateOrderStatus(FAILED)</text></g><g class="message" data-participant-1="DB" data-participant-2="Shop"><polygon fill="#181818" points="254.6499,817.4219,244.6499,821.4219,254.6499,825.4219,250.6499,821.4219" style="stroke:#181818;stroke-width:1;"/><line style="stroke:#181818;stroke-width:1;stroke-dasharray:2,2;" x1="248.6499" x2="609.3843" y1="821.4219" y2="821.4219"/><text fill="#000000" font-family="sans-serif" font-size="13" lengthAdjust="spacing" textLength="96.6177" x="260.6499" y="816.356">confirmUpdate</text></g><g class="message" data-participant-1="Shop" data-participant-2="Client"><polygon fill="#181818" points="54.2651,846.5547,44.2651,850.5547,54.2651,854.5547,50.2651,850.5547" style="stroke:#181818;stroke-width:1;"/><line style="stroke:#181818;stroke-width:1;stroke-dasharray:2,2;" x1="48.2651" x2="237.6499" y1="850.5547" y2="850.5547"/><text fill="#000000" font-family="sans-serif" font-size="13" lengthAdjust="spacing" textLength="110.9634" x="60.2651" y="845.4888">showRetryPage()</text></g><!--SRC=[lLDDZvim4BtpAwoSsiEUUikXKWA9XDJDea1KzLGvPZPO0PlQurJqrtTiI08qNQbLLIIGiT_pcuytNA0sBAubA8nQRb0AsNA5RF4PZYolTBjWt8R5z3ZZNKCSbeEvI041HNjHoP4VkGMsI8PLE4hMK_gcuR9cUMSHcW1uflyewWDXJn-3uf999L5oXBW2STOEtxsFk41veQq-fiX_FJvPBvamG0SPg5AgquifmOpn54AoPa-tkmsWCuffZqlBg8GnydOlvUIXtnnO77BEmLgfrVXkdpczlzvkUsoXpw364fumQ12bJzkJIcb0OA47gOoVW7H6n3xhUvr2VDOT6uanDsK2I8MqluljBXGI-f3a89o1boARgeJm7ehqq2cGryYkVbWvhBIHFw2C63rpuLBQjkPTxeIWoZpJssVeiJDzlnK-SrFqfIrqJjQzScVryLkJ3bx0oDUkC5nP3zKgHuxEpjbNtSUz39GbYrTPSTXlaaT1JvIz9rrB4m71Z8DajagJcImPplzFx2cqUfMcEGJ-NCexTApafuSwHCxVWm3POfYlUNPXnloENqpR0hMa4erP8xL-Dkzw8wAjzFUYukhyHRliOIlxXa1juUQH14GjrTiEsHYZpV_pnmbmP8uW_aVU0CzOidIN7xRRD4utk-Bhzh1ByhyqoNQLVjhyOvlCshO7DDqRFICp_GG0]--></g></svg>