<svg xmlns="http://www.w3.org/2000/svg" xmlns:xlink="http://www.w3.org/1999/xlink" contentStyleType="text/css" data-diagram-type="SEQUENCE" height="1412px" preserveAspectRatio="none" style="width:893px;height:1412px;background:#FFFFFF;" version="1.1" viewBox="0 0 893 1412" width="893px" zoomAndPan="magnify"><defs/><g><g><title>UI</title><rect fill="#FFFFFF" height="145.6641" style="stroke:#181818;stroke-width:1;" width="10" x="270.6206" y="112.4297"/></g><g><title>UI</title><rect fill="#FFFFFF" height="257.8672" style="stroke:#181818;stroke-width:1;" width="10" x="270.6206" y="287.2266"/></g><g><title>UI</title><rect fill="#FFFFFF" height="145.6641" style="stroke:#181818;stroke-width:1;" width="10" x="270.6206" y="590.3594"/></g><g><title>UI</title><rect fill="#FFFFFF" height="145.6641" style="stroke:#181818;stroke-width:1;" width="10" x="270.6206" y="772.1563"/></g><g><title>UI</title><rect fill="#FFFFFF" height="374.3984" style="stroke:#181818;stroke-width:1;" width="10" x="270.6206" y="946.9531"/></g><g><title>ShopService</title><rect fill="#FFFFFF" height="87.3984" style="stroke:#181818;stroke-width:1;" width="10" x="459.645" y="141.5625"/></g><g><title>ShopService</title><rect fill="#FFFFFF" height="228.7344" style="stroke:#181818;stroke-width:1;" width="10" x="459.645" y="316.3594"/></g><g><title>ShopService</title><rect fill="#FFFFFF" height="87.3984" style="stroke:#181818;stroke-width:1;" width="10" x="459.645" y="619.4922"/></g><g><title>ShopService</title><rect fill="#FFFFFF" height="87.3984" style="stroke:#181818;stroke-width:1;" width="10" x="459.645" y="801.2891"/></g><g><title>PaymentService</title><rect fill="#FFFFFF" height="345.2656" style="stroke:#181818;stroke-width:1;" width="10" x="583.9521" y="976.0859"/></g><g><title>DB</title><rect fill="#FFFFFF" height="29.1328" style="stroke:#181818;stroke-width:1;" width="10" x="853.6172" y="170.6953"/></g><g><title>DB</title><rect fill="#FFFFFF" height="29.1328" style="stroke:#181818;stroke-width:1;" width="10" x="853.6172" y="345.4922"/></g><g><title>DB</title><rect fill="#FFFFFF" height="29.1328" style="stroke:#181818;stroke-width:1;" width="10" x="853.6172" y="648.625"/></g><g><title>DB</title><rect fill="#FFFFFF" height="29.1328" style="stroke:#181818;stroke-width:1;" width="10" x="853.6172" y="830.4219"/></g><g><title>DB</title><rect fill="#FFFFFF" height="29.1328" style="stroke:#181818;stroke-width:1;" width="10" x="853.6172" y="1005.2188"/></g><g><title>DB</title><rect fill="#FFFFFF" height="29.1328" style="stroke:#181818;stroke-width:1;" width="10" x="853.6172" y="1087.6172"/></g><g><title>DB</title><rect fill="#FFFFFF" height="29.1328" style="stroke:#181818;stroke-width:1;" width="10" x="853.6172" y="1218.9531"/></g><rect fill="none" height="148.4688" style="stroke:#000000;stroke-width:1.5;" width="515.1216" x="10" y="389.625"/><rect fill="none" height="191.9297" style="stroke:#000000;stroke-width:1.5;" width="876.6172" x="10" y="552.0938"/><rect fill="none" height="265" style="stroke:#000000;stroke-width:1.5;" width="876.6172" x="10" y="1049.3516"/><g><title>User</title><rect fill="#000000" fill-opacity="0.00000" height="1250.0547" width="8" x="34.9551" y="81.2969"/><line style="stroke:#181818;stroke-width:0.5;stroke-dasharray:5,5;" x1="38" x2="38" y1="81.2969" y2="1331.3516"/></g><g><title>UI</title><rect fill="#000000" fill-opacity="0.00000" height="1250.0547" width="8" x="271.6206" y="81.2969"/><line style="stroke:#181818;stroke-width:0.5;stroke-dasharray:5,5;" x1="275.4326" x2="275.4326" y1="81.2969" y2="1331.3516"/></g><g><title>ShopService</title><rect fill="#000000" fill-opacity="0.00000" height="1250.0547" width="8" x="460.645" y="81.2969"/><line style="stroke:#181818;stroke-width:0.5;stroke-dasharray:5,5;" x1="464.1685" x2="464.1685" y1="81.2969" y2="1331.3516"/></g><g><title>PaymentService</title><rect fill="#000000" fill-opacity="0.00000" height="1250.0547" width="8" x="584.9521" y="81.2969"/><line style="stroke:#181818;stroke-width:0.5;stroke-dasharray:5,5;" x1="588.1216" x2="588.1216" y1="81.2969" y2="1331.3516"/></g><g><title>DB</title><rect fill="#000000" fill-opacity="0.00000" height="1250.0547" width="8" x="854.6172" y="81.2969"/><line style="stroke:#181818;stroke-width:0.5;stroke-dasharray:5,5;" x1="858.6172" x2="858.6172" y1="81.2969" y2="1331.3516"/></g><g class="participant participant-head" data-participant="User"><text fill="#000000" font-family="sans-serif" font-size="14" lengthAdjust="spacing" textLength="31.9102" x="20" y="77.9951">User</text><ellipse cx="38.9551" cy="13.5" fill="#E2E2F0" rx="8" ry="8" style="stroke:#181818;stroke-width:0.5;"/><path d="M38.9551,21.5 L38.9551,48.5 M25.9551,29.5 L51.9551,29.5 M38.9551,48.5 L25.9551,63.5 M38.9551,48.5 L51.9551,63.5" fill="none" style="stroke:#181818;stroke-width:0.5;"/></g><g class="participant participant-tail" data-participant="User"><text fill="#000000" font-family="sans-serif" font-size="14" lengthAdjust="spacing" textLength="31.9102" x="20" y="1343.3467">User</text><ellipse cx="38.9551" cy="1355.1484" fill="#E2E2F0" rx="8" ry="8" style="stroke:#181818;stroke-width:0.5;"/><path d="M38.9551,1363.1484 L38.9551,1390.1484 M25.9551,1371.1484 L51.9551,1371.1484 M38.9551,1390.1484 L25.9551,1405.1484 M38.9551,1390.1484 L51.9551,1405.1484" fill="none" style="stroke:#181818;stroke-width:0.5;"/></g><g class="participant participant-head" data-participant="UI"><rect fill="#E2E2F0" height="30.2969" rx="2.5" ry="2.5" style="stroke:#181818;stroke-width:0.5;" width="28.376" x="261.4326" y="50"/><text fill="#000000" font-family="sans-serif" font-size="14" lengthAdjust="spacing" textLength="14.376" x="268.4326" y="69.9951">UI</text></g><g class="participant participant-tail" data-participant="UI"><rect fill="#E2E2F0" height="30.2969" rx="2.5" ry="2.5" style="stroke:#181818;stroke-width:0.5;" width="28.376" x="261.4326" y="1330.3516"/><text fill="#000000" font-family="sans-serif" font-size="14" lengthAdjust="spacing" textLength="14.376" x="268.4326" y="1350.3467">UI</text></g><g class="participant participant-head" data-participant="ShopService"><rect fill="#E2E2F0" height="30.2969" rx="2.5" ry="2.5" style="stroke:#181818;stroke-width:0.5;" width="100.9531" x="414.1685" y="50"/><text fill="#000000" font-family="sans-serif" font-size="14" lengthAdjust="spacing" textLength="86.9531" x="421.1685" y="69.9951">ShopService</text></g><g class="participant participant-tail" data-participant="ShopService"><rect fill="#E2E2F0" height="30.2969" rx="2.5" ry="2.5" style="stroke:#181818;stroke-width:0.5;" width="100.9531" x="414.1685" y="1330.3516"/><text fill="#000000" font-family="sans-serif" font-size="14" lengthAdjust="spacing" textLength="86.9531" x="421.1685" y="1350.3467">ShopService</text></g><g class="participant participant-head" data-participant="PaymentService"><rect fill="#E2E2F0" height="30.2969" rx="2.5" ry="2.5" style="stroke:#181818;stroke-width:0.5;" width="127.6611" x="525.1216" y="50"/><text fill="#000000" font-family="sans-serif" font-size="14" lengthAdjust="spacing" textLength="113.6611" x="532.1216" y="69.9951">PaymentService</text></g><g class="participant participant-tail" data-participant="PaymentService"><rect fill="#E2E2F0" height="30.2969" rx="2.5" ry="2.5" style="stroke:#181818;stroke-width:0.5;" width="127.6611" x="525.1216" y="1330.3516"/><text fill="#000000" font-family="sans-serif" font-size="14" lengthAdjust="spacing" textLength="113.6611" x="532.1216" y="1350.3467">PaymentService</text></g><g class="participant participant-head" data-participant="DB"><text fill="#000000" font-family="sans-serif" font-size="14" lengthAdjust="spacing" textLength="20.3848" x="845.4248" y="77.9951">DB</text><path d="M840.6172,29 C840.6172,19 858.6172,19 858.6172,19 C858.6172,19 876.6172,19 876.6172,29 L876.6172,55 C876.6172,65 858.6172,65 858.6172,65 C858.6172,65 840.6172,65 840.6172,55 L840.6172,29" fill="#E2E2F0" style="stroke:#181818;stroke-width:0.5;"/><path d="M840.6172,29 C840.6172,39 858.6172,39 858.6172,39 C858.6172,39 876.6172,39 876.6172,29" fill="none" style="stroke:#181818;stroke-width:0.5;"/></g><g class="participant participant-tail" data-participant="DB"><text fill="#000000" font-family="sans-serif" font-size="14" lengthAdjust="spacing" textLength="20.3848" x="845.4248" y="1343.3467">DB</text><path d="M840.6172,1356.6484 C840.6172,1346.6484 858.6172,1346.6484 858.6172,1346.6484 C858.6172,1346.6484 876.6172,1346.6484 876.6172,1356.6484 L876.6172,1382.6484 C876.6172,1392.6484 858.6172,1392.6484 858.6172,1392.6484 C858.6172,1392.6484 840.6172,1392.6484 840.6172,1382.6484 L840.6172,1356.6484" fill="#E2E2F0" style="stroke:#181818;stroke-width:0.5;"/><path d="M840.6172,1356.6484 C840.6172,1366.6484 858.6172,1366.6484 858.6172,1366.6484 C858.6172,1366.6484 876.6172,1366.6484 876.6172,1356.6484" fill="none" style="stroke:#181818;stroke-width:0.5;"/></g><g><title>UI</title><rect fill="#FFFFFF" height="145.6641" style="stroke:#181818;stroke-width:1;" width="10" x="270.6206" y="112.4297"/></g><g><title>UI</title><rect fill="#FFFFFF" height="257.8672" style="stroke:#181818;stroke-width:1;" width="10" x="270.6206" y="287.2266"/></g><g><title>UI</title><rect fill="#FFFFFF" height="145.6641" style="stroke:#181818;stroke-width:1;" width="10" x="270.6206" y="590.3594"/></g><g><title>UI</title><rect fill="#FFFFFF" height="145.6641" style="stroke:#181818;stroke-width:1;" width="10" x="270.6206" y="772.1563"/></g><g><title>UI</title><rect fill="#FFFFFF" height="374.3984" style="stroke:#181818;stroke-width:1;" width="10" x="270.6206" y="946.9531"/></g><g><title>ShopService</title><rect fill="#FFFFFF" height="87.3984" style="stroke:#181818;stroke-width:1;" width="10" x="459.645" y="141.5625"/></g><g><title>ShopService</title><rect fill="#FFFFFF" height="228.7344" style="stroke:#181818;stroke-width:1;" width="10" x="459.645" y="316.3594"/></g><g><title>ShopService</title><rect fill="#FFFFFF" height="87.3984" style="stroke:#181818;stroke-width:1;" width="10" x="459.645" y="619.4922"/></g><g><title>ShopService</title><rect fill="#FFFFFF" height="87.3984" style="stroke:#181818;stroke-width:1;" width="10" x="459.645" y="801.2891"/></g><g><title>PaymentService</title><rect fill="#FFFFFF" height="345.2656" style="stroke:#181818;stroke-width:1;" width="10" x="583.9521" y="976.0859"/></g><g><title>DB</title><rect fill="#FFFFFF" height="29.1328" style="stroke:#181818;stroke-width:1;" width="10" x="853.6172" y="170.6953"/></g><g><title>DB</title><rect fill="#FFFFFF" height="29.1328" style="stroke:#181818;stroke-width:1;" width="10" x="853.6172" y="345.4922"/></g><g><title>DB</title><rect fill="#FFFFFF" height="29.1328" style="stroke:#181818;stroke-width:1;" width="10" x="853.6172" y="648.625"/></g><g><title>DB</title><rect fill="#FFFFFF" height="29.1328" style="stroke:#181818;stroke-width:1;" width="10" x="853.6172" y="830.4219"/></g><g><title>DB</title><rect fill="#FFFFFF" height="29.1328" style="stroke:#181818;stroke-width:1;" width="10" x="853.6172" y="1005.2188"/></g><g><title>DB</title><rect fill="#FFFFFF" height="29.1328" style="stroke:#181818;stroke-width:1;" width="10" x="853.6172" y="1087.6172"/></g><g><title>DB</title><rect fill="#FFFFFF" height="29.1328" style="stroke:#181818;stroke-width:1;" width="10" x="853.6172" y="1218.9531"/></g><g class="message" data-participant-1="User" data-participant-2="UI"><polygon fill="#181818" points="258.6206,108.4297,268.6206,112.4297,258.6206,116.4297,262.6206,112.4297" style="stroke:#181818;stroke-width:1;"/><line style="stroke:#181818;stroke-width:1;" x1="38.9551" x2="264.6206" y1="112.4297" y2="112.4297"/><text fill="#000000" font-family="sans-serif" font-size="13" lengthAdjust="spacing" textLength="95.1704" x="45.9551" y="107.3638">openWebsite()</text></g><g class="message" data-participant-1="UI" data-participant-2="ShopService"><polygon fill="#181818" points="447.645,137.5625,457.645,141.5625,447.645,145.5625,451.645,141.5625" style="stroke:#181818;stroke-width:1;"/><line style="stroke:#181818;stroke-width:1;" x1="280.6206" x2="453.645" y1="141.5625" y2="141.5625"/><text fill="#000000" font-family="sans-serif" font-size="13" lengthAdjust="spacing" textLength="94.5737" x="287.6206" y="136.4966">loadProducts()</text></g><g class="message" data-participant-1="ShopService" data-participant-2="DB"><polygon fill="#181818" points="841.6172,166.6953,851.6172,170.6953,841.6172,174.6953,845.6172,170.6953" style="stroke:#181818;stroke-width:1;"/><line style="stroke:#181818;stroke-width:1;" x1="469.645" x2="847.6172" y1="170.6953" y2="170.6953"/><text fill="#000000" font-family="sans-serif" font-size="13" lengthAdjust="spacing" textLength="104.3174" x="476.645" y="165.6294">queryProducts()</text></g><g class="message" data-participant-1="DB" data-participant-2="ShopService"><polygon fill="#181818" points="480.645,195.8281,470.645,199.8281,480.645,203.8281,476.645,199.8281" style="stroke:#181818;stroke-width:1;"/><line style="stroke:#181818;stroke-width:1;stroke-dasharray:2,2;" x1="474.645" x2="857.6172" y1="199.8281" y2="199.8281"/><text fill="#000000" font-family="sans-serif" font-size="13" lengthAdjust="spacing" textLength="67.2026" x="486.645" y="194.7622">products()</text></g><g class="message" data-participant-1="ShopService" data-participant-2="UI"><polygon fill="#181818" points="291.6206,224.9609,281.6206,228.9609,291.6206,232.9609,287.6206,228.9609" style="stroke:#181818;stroke-width:1;"/><line style="stroke:#181818;stroke-width:1;stroke-dasharray:2,2;" x1="285.6206" x2="463.645" y1="228.9609" y2="228.9609"/><text fill="#000000" font-family="sans-serif" font-size="13" lengthAdjust="spacing" textLength="83.1543" x="297.6206" y="223.895">productList()</text></g><g class="message" data-participant-1="UI" data-participant-2="User"><polygon fill="#181818" points="49.9551,254.0938,39.9551,258.0938,49.9551,262.0938,45.9551,258.0938" style="stroke:#181818;stroke-width:1;"/><line style="stroke:#181818;stroke-width:1;stroke-dasharray:2,2;" x1="43.9551" x2="274.6206" y1="258.0938" y2="258.0938"/><text fill="#000000" font-family="sans-serif" font-size="13" lengthAdjust="spacing" textLength="124.1792" x="55.9551" y="253.0278">renderHomepage()</text></g><g class="message" data-participant-1="User" data-participant-2="UI"><polygon fill="#181818" points="258.6206,283.2266,268.6206,287.2266,258.6206,291.2266,262.6206,287.2266" style="stroke:#181818;stroke-width:1;"/><line style="stroke:#181818;stroke-width:1;" x1="38.9551" x2="264.6206" y1="287.2266" y2="287.2266"/><text fill="#000000" font-family="sans-serif" font-size="13" lengthAdjust="spacing" textLength="102.3306" x="45.9551" y="282.1606">searchOrFilter()</text></g><g class="message" data-participant-1="UI" data-participant-2="ShopService"><polygon fill="#181818" points="447.645,312.3594,457.645,316.3594,447.645,320.3594,451.645,316.3594" style="stroke:#181818;stroke-width:1;"/><line style="stroke:#181818;stroke-width:1;" x1="280.6206" x2="453.645" y1="316.3594" y2="316.3594"/><text fill="#000000" font-family="sans-serif" font-size="13" lengthAdjust="spacing" textLength="147.272" x="287.6206" y="311.2935">searchProducts(filters)</text></g><g class="message" data-participant-1="ShopService" data-participant-2="DB"><polygon fill="#181818" points="841.6172,341.4922,851.6172,345.4922,841.6172,349.4922,845.6172,345.4922" style="stroke:#181818;stroke-width:1;"/><line style="stroke:#181818;stroke-width:1;" x1="469.645" x2="847.6172" y1="345.4922" y2="345.4922"/><text fill="#000000" font-family="sans-serif" font-size="13" lengthAdjust="spacing" textLength="154.4004" x="476.645" y="340.4263">queryWithFilters(filters)</text></g><g class="message" data-participant-1="DB" data-participant-2="ShopService"><polygon fill="#181818" points="480.645,370.625,470.645,374.625,480.645,378.625,476.645,374.625" style="stroke:#181818;stroke-width:1;"/><line style="stroke:#181818;stroke-width:1;stroke-dasharray:2,2;" x1="474.645" x2="857.6172" y1="374.625" y2="374.625"/><text fill="#000000" font-family="sans-serif" font-size="13" lengthAdjust="spacing" textLength="124.6997" x="486.645" y="369.5591">productsOrEmpty()</text></g><path d="M10,389.625 L74.4429,389.625 L74.4429,396.7578 L64.4429,406.7578 L10,406.7578 L10,389.625" fill="#EEEEEE" style="stroke:#000000;stroke-width:1.5;"/><rect fill="none" height="148.4688" style="stroke:#000000;stroke-width:1.5;" width="515.1216" x="10" y="389.625"/><text fill="#000000" font-family="sans-serif" font-size="13" font-weight="bold" lengthAdjust="spacing" textLength="19.4429" x="25" y="402.6919">alt</text><text fill="#000000" font-family="sans-serif" font-size="11" font-weight="bold" lengthAdjust="spacing" textLength="104.8384" x="89.4429" y="401.8354">[Products found]</text><g class="message" data-participant-1="ShopService" data-participant-2="UI"><polygon fill="#181818" points="291.6206,423.8906,281.6206,427.8906,291.6206,431.8906,287.6206,427.8906" style="stroke:#181818;stroke-width:1;"/><line style="stroke:#181818;stroke-width:1;stroke-dasharray:2,2;" x1="285.6206" x2="458.645" y1="427.8906" y2="427.8906"/><text fill="#000000" font-family="sans-serif" font-size="13" lengthAdjust="spacing" textLength="107.0532" x="297.6206" y="422.8247">returnProducts()</text></g><g class="message" data-participant-1="UI" data-participant-2="User"><polygon fill="#181818" points="49.9551,453.0234,39.9551,457.0234,49.9551,461.0234,45.9551,457.0234" style="stroke:#181818;stroke-width:1;"/><line style="stroke:#181818;stroke-width:1;stroke-dasharray:2,2;" x1="43.9551" x2="269.6206" y1="457.0234" y2="457.0234"/><text fill="#000000" font-family="sans-serif" font-size="13" lengthAdjust="spacing" textLength="100.3882" x="55.9551" y="451.9575">showProducts()</text></g><line style="stroke:#000000;stroke-width:1;stroke-dasharray:2,2;" x1="10" x2="525.1216" y1="466.0234" y2="466.0234"/><text fill="#000000" font-family="sans-serif" font-size="11" font-weight="bold" lengthAdjust="spacing" textLength="85.5347" x="15" y="476.2339">[No products]</text><g class="message" data-participant-1="ShopService" data-participant-2="UI"><polygon fill="#181818" points="291.6206,496.9609,281.6206,500.9609,291.6206,504.9609,287.6206,500.9609" style="stroke:#181818;stroke-width:1;"/><line style="stroke:#181818;stroke-width:1;stroke-dasharray:2,2;" x1="285.6206" x2="458.645" y1="500.9609" y2="500.9609"/><text fill="#000000" font-family="sans-serif" font-size="13" lengthAdjust="spacing" textLength="92.3267" x="297.6206" y="495.895">returnEmpty()</text></g><g class="message" data-participant-1="UI" data-participant-2="User"><polygon fill="#181818" points="49.9551,526.0938,39.9551,530.0938,49.9551,534.0938,45.9551,530.0938" style="stroke:#181818;stroke-width:1;"/><line style="stroke:#181818;stroke-width:1;stroke-dasharray:2,2;" x1="43.9551" x2="269.6206" y1="530.0938" y2="530.0938"/><text fill="#000000" font-family="sans-serif" font-size="13" lengthAdjust="spacing" textLength="108.9448" x="55.9551" y="525.0278">showNoResults()</text></g><path d="M10,552.0938 L86.624,552.0938 L86.624,559.2266 L76.624,569.2266 L10,569.2266 L10,552.0938" fill="#EEEEEE" style="stroke:#000000;stroke-width:1.5;"/><rect fill="none" height="191.9297" style="stroke:#000000;stroke-width:1.5;" width="876.6172" x="10" y="552.0938"/><text fill="#000000" font-family="sans-serif" font-size="13" font-weight="bold" lengthAdjust="spacing" textLength="31.624" x="25" y="565.1606">loop</text><text fill="#000000" font-family="sans-serif" font-size="11" font-weight="bold" lengthAdjust="spacing" textLength="139.5947" x="101.624" y="564.3042">[addProductsToCart()]</text><g class="message" data-participant-1="User" data-participant-2="UI"><polygon fill="#181818" points="258.6206,586.3594,268.6206,590.3594,258.6206,594.3594,262.6206,590.3594" style="stroke:#181818;stroke-width:1;"/><line style="stroke:#181818;stroke-width:1;" x1="38.9551" x2="264.6206" y1="590.3594" y2="590.3594"/><text fill="#000000" font-family="sans-serif" font-size="13" lengthAdjust="spacing" textLength="146.8594" x="45.9551" y="585.2935">addProduct(productId)</text></g><g class="message" data-participant-1="UI" data-participant-2="ShopService"><polygon fill="#181818" points="447.645,615.4922,457.645,619.4922,447.645,623.4922,451.645,619.4922" style="stroke:#181818;stroke-width:1;"/><line style="stroke:#181818;stroke-width:1;" x1="280.6206" x2="453.645" y1="619.4922" y2="619.4922"/><text fill="#000000" font-family="sans-serif" font-size="13" lengthAdjust="spacing" textLength="160.0244" x="287.6206" y="614.4263">saveCartItem(productId)</text></g><g class="message" data-participant-1="ShopService" data-participant-2="DB"><polygon fill="#181818" points="841.6172,644.625,851.6172,648.625,841.6172,652.625,845.6172,648.625" style="stroke:#181818;stroke-width:1;"/><line style="stroke:#181818;stroke-width:1;" x1="469.645" x2="847.6172" y1="648.625" y2="648.625"/><text fill="#000000" font-family="sans-serif" font-size="13" lengthAdjust="spacing" textLength="132.5391" x="476.645" y="643.5591">saveItem(productId)</text></g><g class="message" data-participant-1="DB" data-participant-2="ShopService"><polygon fill="#181818" points="480.645,673.7578,470.645,677.7578,480.645,681.7578,476.645,677.7578" style="stroke:#181818;stroke-width:1;"/><line style="stroke:#181818;stroke-width:1;stroke-dasharray:2,2;" x1="474.645" x2="857.6172" y1="677.7578" y2="677.7578"/><text fill="#000000" font-family="sans-serif" font-size="13" lengthAdjust="spacing" textLength="25.6255" x="486.645" y="672.6919">ok()</text></g><g class="message" data-participant-1="ShopService" data-participant-2="UI"><polygon fill="#181818" points="291.6206,702.8906,281.6206,706.8906,291.6206,710.8906,287.6206,706.8906" style="stroke:#181818;stroke-width:1;"/><line style="stroke:#181818;stroke-width:1;stroke-dasharray:2,2;" x1="285.6206" x2="463.645" y1="706.8906" y2="706.8906"/><text fill="#000000" font-family="sans-serif" font-size="13" lengthAdjust="spacing" textLength="91.0317" x="297.6206" y="701.8247">cartUpdated()</text></g><g class="message" data-participant-1="UI" data-participant-2="User"><polygon fill="#181818" points="49.9551,732.0234,39.9551,736.0234,49.9551,740.0234,45.9551,736.0234" style="stroke:#181818;stroke-width:1;"/><line style="stroke:#181818;stroke-width:1;stroke-dasharray:2,2;" x1="43.9551" x2="274.6206" y1="736.0234" y2="736.0234"/><text fill="#000000" font-family="sans-serif" font-size="13" lengthAdjust="spacing" textLength="110.6079" x="55.9551" y="730.9575">updateCartIcon()</text></g><g class="message" data-participant-1="User" data-participant-2="UI"><polygon fill="#181818" points="258.6206,768.1563,268.6206,772.1563,258.6206,776.1563,262.6206,772.1563" style="stroke:#181818;stroke-width:1;"/><line style="stroke:#181818;stroke-width:1;" x1="38.9551" x2="264.6206" y1="772.1563" y2="772.1563"/><text fill="#000000" font-family="sans-serif" font-size="13" lengthAdjust="spacing" textLength="69.4941" x="45.9551" y="767.0903">checkout()</text></g><g class="message" data-participant-1="UI" data-participant-2="ShopService"><polygon fill="#181818" points="447.645,797.2891,457.645,801.2891,447.645,805.2891,451.645,801.2891" style="stroke:#181818;stroke-width:1;"/><line style="stroke:#181818;stroke-width:1;" x1="280.6206" x2="453.645" y1="801.2891" y2="801.2891"/><text fill="#000000" font-family="sans-serif" font-size="13" lengthAdjust="spacing" textLength="114.4229" x="287.6206" y="796.2231">createOrder(cart)</text></g><g class="message" data-participant-1="ShopService" data-participant-2="DB"><polygon fill="#181818" points="841.6172,826.4219,851.6172,830.4219,841.6172,834.4219,845.6172,830.4219" style="stroke:#181818;stroke-width:1;"/><line style="stroke:#181818;stroke-width:1;" x1="469.645" x2="847.6172" y1="830.4219" y2="830.4219"/><text fill="#000000" font-family="sans-serif" font-size="13" lengthAdjust="spacing" textLength="103.3018" x="476.645" y="825.356">saveOrder(cart)</text></g><g class="message" data-participant-1="DB" data-participant-2="ShopService"><polygon fill="#181818" points="480.645,855.5547,470.645,859.5547,480.645,863.5547,476.645,859.5547" style="stroke:#181818;stroke-width:1;"/><line style="stroke:#181818;stroke-width:1;stroke-dasharray:2,2;" x1="474.645" x2="857.6172" y1="859.5547" y2="859.5547"/><text fill="#000000" font-family="sans-serif" font-size="13" lengthAdjust="spacing" textLength="57.1226" x="486.645" y="854.4888">orderId()</text></g><g class="message" data-participant-1="ShopService" data-participant-2="UI"><polygon fill="#181818" points="291.6206,884.6875,281.6206,888.6875,291.6206,892.6875,287.6206,888.6875" style="stroke:#181818;stroke-width:1;"/><line style="stroke:#181818;stroke-width:1;stroke-dasharray:2,2;" x1="285.6206" x2="463.645" y1="888.6875" y2="888.6875"/><text fill="#000000" font-family="sans-serif" font-size="13" lengthAdjust="spacing" textLength="143.749" x="297.6206" y="883.6216">orderCreated(orderId)</text></g><g class="message" data-participant-1="UI" data-participant-2="User"><polygon fill="#181818" points="49.9551,913.8203,39.9551,917.8203,49.9551,921.8203,45.9551,917.8203" style="stroke:#181818;stroke-width:1;"/><line style="stroke:#181818;stroke-width:1;stroke-dasharray:2,2;" x1="43.9551" x2="274.6206" y1="917.8203" y2="917.8203"/><text fill="#000000" font-family="sans-serif" font-size="13" lengthAdjust="spacing" textLength="143.7363" x="55.9551" y="912.7544">showOrderSummary()</text></g><g class="message" data-participant-1="User" data-participant-2="UI"><polygon fill="#181818" points="258.6206,942.9531,268.6206,946.9531,258.6206,950.9531,262.6206,946.9531" style="stroke:#181818;stroke-width:1;"/><line style="stroke:#181818;stroke-width:1;" x1="38.9551" x2="264.6206" y1="946.9531" y2="946.9531"/><text fill="#000000" font-family="sans-serif" font-size="13" lengthAdjust="spacing" textLength="212.6655" x="45.9551" y="941.8872">choosePaymentMethod(method)</text></g><g class="message" data-participant-1="UI" data-participant-2="PaymentService"><polygon fill="#181818" points="571.9521,972.0859,581.9521,976.0859,571.9521,980.0859,575.9521,976.0859" style="stroke:#181818;stroke-width:1;"/><line style="stroke:#181818;stroke-width:1;" x1="280.6206" x2="577.9521" y1="976.0859" y2="976.0859"/><text fill="#000000" font-family="sans-serif" font-size="13" lengthAdjust="spacing" textLength="139.5024" x="287.6206" y="971.02">pay(orderId, method)</text></g><g class="message" data-participant-1="PaymentService" data-participant-2="DB"><polygon fill="#181818" points="841.6172,1001.2188,851.6172,1005.2188,841.6172,1009.2188,845.6172,1005.2188" style="stroke:#181818;stroke-width:1;"/><line style="stroke:#181818;stroke-width:1;" x1="593.9521" x2="847.6172" y1="1005.2188" y2="1005.2188"/><text fill="#000000" font-family="sans-serif" font-size="13" lengthAdjust="spacing" textLength="234.3618" x="600.9521" y="1000.1528">authorizePayment(orderId, method)</text></g><g class="message" data-participant-1="DB" data-participant-2="PaymentService"><polygon fill="#181818" points="604.9521,1030.3516,594.9521,1034.3516,604.9521,1038.3516,600.9521,1034.3516" style="stroke:#181818;stroke-width:1;"/><line style="stroke:#181818;stroke-width:1;stroke-dasharray:2,2;" x1="598.9521" x2="857.6172" y1="1034.3516" y2="1034.3516"/><text fill="#000000" font-family="sans-serif" font-size="13" lengthAdjust="spacing" textLength="109.478" x="610.9521" y="1029.2856">paymentStatus()</text></g><path d="M10,1049.3516 L74.4429,1049.3516 L74.4429,1056.4844 L64.4429,1066.4844 L10,1066.4844 L10,1049.3516" fill="#EEEEEE" style="stroke:#000000;stroke-width:1.5;"/><rect fill="none" height="265" style="stroke:#000000;stroke-width:1.5;" width="876.6172" x="10" y="1049.3516"/><text fill="#000000" font-family="sans-serif" font-size="13" font-weight="bold" lengthAdjust="spacing" textLength="19.4429" x="25" y="1062.4185">alt</text><text fill="#000000" font-family="sans-serif" font-size="11" font-weight="bold" lengthAdjust="spacing" textLength="132.9131" x="89.4429" y="1061.562">[Payment successful]</text><g class="message" data-participant-1="PaymentService" data-participant-2="DB"><polygon fill="#181818" points="841.6172,1083.6172,851.6172,1087.6172,841.6172,1091.6172,845.6172,1087.6172" style="stroke:#181818;stroke-width:1;"/><line style="stroke:#181818;stroke-width:1;" x1="593.9521" x2="847.6172" y1="1087.6172" y2="1087.6172"/><text fill="#000000" font-family="sans-serif" font-size="13" lengthAdjust="spacing" textLength="229.417" x="600.9521" y="1082.5513">updateOrderStatus(orderId, "Paid")</text></g><g class="message" data-participant-1="DB" data-participant-2="PaymentService"><polygon fill="#181818" points="604.9521,1112.75,594.9521,1116.75,604.9521,1120.75,600.9521,1116.75" style="stroke:#181818;stroke-width:1;"/><line style="stroke:#181818;stroke-width:1;stroke-dasharray:2,2;" x1="598.9521" x2="857.6172" y1="1116.75" y2="1116.75"/><text fill="#000000" font-family="sans-serif" font-size="13" lengthAdjust="spacing" textLength="82.9385" x="610.9521" y="1111.6841">sendNotice()</text></g><g class="message" data-participant-1="PaymentService" data-participant-2="UI"><polygon fill="#181818" points="291.6206,1141.8828,281.6206,1145.8828,291.6206,1149.8828,287.6206,1145.8828" style="stroke:#181818;stroke-width:1;"/><line style="stroke:#181818;stroke-width:1;stroke-dasharray:2,2;" x1="285.6206" x2="582.9521" y1="1145.8828" y2="1145.8828"/><text fill="#000000" font-family="sans-serif" font-size="13" lengthAdjust="spacing" textLength="120.3833" x="297.6206" y="1140.8169">paymentSuccess()</text></g><g class="message" data-participant-1="UI" data-participant-2="User"><polygon fill="#181818" points="49.9551,1171.0156,39.9551,1175.0156,49.9551,1179.0156,45.9551,1175.0156" style="stroke:#181818;stroke-width:1;"/><line style="stroke:#181818;stroke-width:1;stroke-dasharray:2,2;" x1="43.9551" x2="269.6206" y1="1175.0156" y2="1175.0156"/><text fill="#000000" font-family="sans-serif" font-size="13" lengthAdjust="spacing" textLength="96.8525" x="55.9551" y="1169.9497">confirmOrder()</text></g><line style="stroke:#000000;stroke-width:1;stroke-dasharray:2,2;" x1="10" x2="886.6172" y1="1184.0156" y2="1184.0156"/><text fill="#000000" font-family="sans-serif" font-size="11" font-weight="bold" lengthAdjust="spacing" textLength="103.6353" x="15" y="1194.2261">[Payment failed]</text><g class="message" data-participant-1="PaymentService" data-participant-2="DB"><polygon fill="#181818" points="841.6172,1214.9531,851.6172,1218.9531,841.6172,1222.9531,845.6172,1218.9531" style="stroke:#181818;stroke-width:1;"/><line style="stroke:#181818;stroke-width:1;" x1="593.9521" x2="847.6172" y1="1218.9531" y2="1218.9531"/><text fill="#000000" font-family="sans-serif" font-size="13" lengthAdjust="spacing" textLength="240.665" x="600.9521" y="1213.8872">updateOrderStatus(orderId, "Failed")</text></g><g class="message" data-participant-1="DB" data-participant-2="PaymentService"><polygon fill="#181818" points="604.9521,1244.0859,594.9521,1248.0859,604.9521,1252.0859,600.9521,1248.0859" style="stroke:#181818;stroke-width:1;"/><line style="stroke:#181818;stroke-width:1;stroke-dasharray:2,2;" x1="598.9521" x2="857.6172" y1="1248.0859" y2="1248.0859"/><text fill="#000000" font-family="sans-serif" font-size="13" lengthAdjust="spacing" textLength="82.9385" x="610.9521" y="1243.02">sendNotice()</text></g><g class="message" data-participant-1="PaymentService" data-participant-2="UI"><polygon fill="#181818" points="291.6206,1273.2188,281.6206,1277.2188,291.6206,1281.2188,287.6206,1277.2188" style="stroke:#181818;stroke-width:1;"/><line style="stroke:#181818;stroke-width:1;stroke-dasharray:2,2;" x1="285.6206" x2="582.9521" y1="1277.2188" y2="1277.2188"/><text fill="#000000" font-family="sans-serif" font-size="13" lengthAdjust="spacing" textLength="106.9707" x="297.6206" y="1272.1528">paymentFailed()</text></g><g class="message" data-participant-1="UI" data-participant-2="User"><polygon fill="#181818" points="49.9551,1302.3516,39.9551,1306.3516,49.9551,1310.3516,45.9551,1306.3516" style="stroke:#181818;stroke-width:1;"/><line style="stroke:#181818;stroke-width:1;stroke-dasharray:2,2;" x1="43.9551" x2="269.6206" y1="1306.3516" y2="1306.3516"/><text fill="#000000" font-family="sans-serif" font-size="13" lengthAdjust="spacing" textLength="133.4404" x="55.9551" y="1301.2856">showPaymentError()</text></g><!--SRC=[lLRDRjD04BxxALQz42Jo0Zbmw9-816r5YNhUxaw8LTjhTjT5uPIs73WW8LMeLrwXhLe8BGsli7uZPhrsQZjsKpYG7EorPsQ_cM- -MLEcXIG31TABgTG-ysCQQJBeLvQx8n7lWZpq6LIUxz1n294kNd6gwJvLGDPNFUz9jzibvZGzCrVc9fsOQNgC_oyaFJBdvYVUdX2qyEpMfFiST-mH4KEq1_lArz1vwb6c_KEgmO8PzArD2KQF18Bo7IbumhGgMvUnbkwj__fgZxnBG8wR_13p-Yf2gcqJtvjoA1jNOkS9vCOlVQMhzcLGDXThZudtY8I8WtmXGeZfMwWwOTvv5R-PMVefFJ4t16jtOMOa_OXrlKq_Onad93qsCtDfpjC9FhnSgAe2AjbeMsxwWGQvlB3EVbwYOUQc_hB2UxuUkGsR8YofzRRS26CzNYYvHmFikTo834KISO_WhuaA2JgHKObeQrWflHg9zwNt463ZReavY2MH2uIDORV4Qr19uE8Yo9PEQEJwAv9vXJGZeUREt5d5LFb5uPWRsn1cYWrXsGw4Y0dbSpcy4MieqW9SgHNkRJfvcdtkhCf0YfJgVK4FmSRjQmXRtSlfBHJGzOUDys0CPDgkcpf47EHPLHkZZIg6S0SnZYNWYtvrg1KMaymhIvU9QD4PosI9TPojZO0TY4HRfivnmE7b4WcQcEkSGVC3oVoLiNWxVrZNASkZB5Seau0ljoLEZevDyV7QjBLlz6jHfB2sVVweuPVPhcNGU2TtVDmGj9B9KEqcOKZbk6qCdcB7NwHdTkGTcTzOuICiwONLmmoNjwYGOpDr962bfrObMEj2HdEJQ_EzuV1X8o4Kv2VQAz0ZmJjXTcdYethouUYYuoBdPsJ1hNPEUjLrGGvDq4tw7meG3mIyfwi1IBRML2UgPO8w4w8Ina2fOH9atTqCoWd1iUDYpb6jx52VhpmetZewXQBP4lZz0AqwhiCeZjRyiSFSD7XHfqDVXgwzytbUf3gaVW3y7zFSp9p_Sw9kqzPponbjI2baViQKcQv_bvN5z0S0]--></g></svg>